PathFileType	4	(X/Y/Z)	/Users/itak/Documents/Research/Walk-IL/dataset/trc/00568_00009.trc
DataRate	CameraRate	NumFrames	NumMarkers	Units	OrigDataRate	OrigDataStartFrame	OrigNumFrames
100.000000	100.000000	4	56	mm	100.000000	462	528
Frame#	Time	RPSI			LPSI			L3			STRN			T10			C7			CLAV			RBAK			LBAK			LSHO			LUPA			LAEL			LAOL			LWTS			LWPS			LFRA			LIFD			LHPS			LHTS			RSHO			RUPA			RAEL			RAOL			RWPS			RFRA			RIFD			RHTS			RHPS			RBHD			LFHD			RFHD			LBHD			LHIP			RHIP			RASI			LASI			LKNE			LTHI			LANK			LTIP			LTOE			LMT1			LMT5			LHEE			RKNE			RTHI			RANK			RTIP			RTOE			RMT1			RMT5			RHEE			RWTS			*53			*54			*55			
		X1	Y1	Z1	X2	Y2	Z2	X3	Y3	Z3	X4	Y4	Z4	X5	Y5	Z5	X6	Y6	Z6	X7	Y7	Z7	X8	Y8	Z8	X9	Y9	Z9	X10	Y10	Z10	X11	Y11	Z11	X12	Y12	Z12	X13	Y13	Z13	X14	Y14	Z14	X15	Y15	Z15	X16	Y16	Z16	X17	Y17	Z17	X18	Y18	Z18	X19	Y19	Z19	X20	Y20	Z20	X21	Y21	Z21	X22	Y22	Z22	X23	Y23	Z23	X24	Y24	Z24	X25	Y25	Z25	X26	Y26	Z26	X27	Y27	Z27	X28	Y28	Z28	X29	Y29	Z29	X30	Y30	Z30	X31	Y31	Z31	X32	Y32	Z32	X33	Y33	Z33	X34	Y34	Z34	X35	Y35	Z35	X36	Y36	Z36	X37	Y37	Z37	X38	Y38	Z38	X39	Y39	Z39	X40	Y40	Z40	X41	Y41	Z41	X42	Y42	Z42	X43	Y43	Z43	X44	Y44	Z44	X45	Y45	Z45	X46	Y46	Z46	X47	Y47	Z47	X48	Y48	Z48	X49	Y49	Z49	X50	Y50	Z50	X51	Y51	Z51	X52	Y52	Z52	X53	Y53	Z53	X54	Y54	Z54	X55	Y55	Z55	X56	Y56	Z56	

463	4.62	228.9683990478516	1020.745910644531	1102.776245117188	363.2639770507812	1025.13525390625	1106.364990234375	299.7174377441406	1111.470336914062	1109.296020507812	311.5578918457031	1306.142456054688	1333.062622070312	302.222900390625	1237.105712890625	1094.922241210938	294.00634765625	1513.427978515625	1132.82080078125	312.4633178710938	1417.260986328125	1309.937866210938	205.0209808349609	1385.66162109375	1070.085693359375	381.5765686035156	1459.315063476562	1094.934936523438	470.8136596679688	1486.056762695312	1185.765747070312	545.020751953125	1356.453125	1172.988647460938	567.0974731445312	1136.698486328125	1200.234130859375	508.9449462890625	1127.105102539062	1118.47705078125	529.4620971679688	891.2127075195312	1290.668579101562	598.4766845703125	871.7372436523438	1240.86767578125	576.328369140625	1050.630859375	1222.390258789062	531.095947265625	722.6655883789062	1273.439697265625	592.017578125	811.1300048828125	1246.658447265625	552.4374389648438	814.482177734375	1302.411010742188	140.8279113769531	1480.300170898438	1198.253295898438	70.79335784912109	1415.043090820312	1184.387084960938	22.28015899658203	1127.39111328125	1191.083984375	48.02951431274414	1107.625244140625	1135.644775390625	-9.250201225280762	891.3519287109375	1290.36767578125	12.91643714904785	1072.432495117188	1203.143188476562	55.66341781616211	740.99853515625	1349.131103515625	42.72096633911133	823.3516845703125	1366.355224609375	-6.626426219940186	818.3438720703125	1310.96142578125	229.8411865234375	1697.741821289062	1225.947265625	377.8893737792969	1713.64501953125	1371.4873046875	233.7284545898438	1712.343383789062	1365.960083007812	395.6243286132812	1697.785888671875	1239.516967773438	492.2975463867188	944.5379638671875	1234.79052734375	103.7413177490234	948.8770141601562	1222.1865234375	161.3450469970703	980.405517578125	1311.115844726562	439.2240295410156	971.1448364257812	1313.869018554688	419.6665649414062	500.5585021972656	1245.1484375	461.396728515625	664.1369018554688	1253.590576171875	403.3184814453125	34.87761688232422	1162.033325195312	420.350830078125	256.7899780273438	1181.219116210938	331.9205932617188	45.28385162353516	1370.41650390625	301.0505065917969	49.15231704711914	1295.63525390625	410.3394470214844	39.14060592651367	1285.095092773438	351.8559875488281	38.34076309204102	1090.7216796875	152.964111328125	504.6951599121094	1234.157592773438	109.2637329101562	793.2586059570312	1258.018188476562	172.1059112548828	43.70859527587891	1151.027221679688	166.0751647949219	363.4668884277344	1229.480224609375	209.9094390869141	44.71477890014648	1371.972412109375	252.8098449707031	40.85779571533203	1306.102783203125	152.4109344482422	45.51320648193359	1283.316650390625	223.1216430664062	31.7187557220459	1096.193359375	58.77371597290039	913.03076171875	1333.873901367188	nan	nan	nan	nan	nan	nan	nan	nan	nan	
464	4.63	228.7977905273438	1020.917907714844	1103.52587890625	363.0677795410156	1025.297607421875	1107.233032226562	299.4977416992188	1111.4150390625	1110.26904296875	311.2095336914062	1306.1484375	1333.945434570312	302.0592651367188	1237.026000976562	1095.865234375	293.7278747558594	1513.37841796875	1133.567993164062	312.1250610351562	1417.2626953125	1310.748657226562	204.8795318603516	1385.49951171875	1070.803588867188	381.2712097167969	1459.278198242188	1095.773193359375	470.5419311523438	1486.027709960938	1186.59130859375	544.7276000976562	1356.448608398438	1173.127197265625	566.8214721679688	1136.517333984375	1198.421020507812	508.0408020019531	1127.670654296875	1117.054443359375	530.1708984375	889.8457641601562	1286.293090820312	598.9166259765625	871.2005615234375	1235.795654296875	576.2908325195312	1050.284790039062	1219.62939453125	531.73095703125	721.2454833984375	1266.032470703125	592.6055297851562	810.4863891601562	1240.610229492188	553.054443359375	812.44189453125	1296.303833007812	140.5560455322266	1480.2119140625	1198.84912109375	70.56246948242188	1414.945922851562	1184.875610351562	21.99182319641113	1127.285034179688	1191.453735351562	47.86542892456055	1107.516357421875	1136.0595703125	-9.609572410583496	891.2637329101562	1290.76806640625	12.65654182434082	1072.304565429688	1203.525634765625	55.23713684082031	740.9593505859375	1349.767578125	42.23202896118164	823.3250732421875	1366.896362304688	-6.899301052093506	818.2390747070312	1311.409423828125	229.2991790771484	1697.687255859375	1226.368041992188	377.3773193359375	1713.881591796875	1371.910522460938	233.2322998046875	1712.486328125	1366.356201171875	395.2132263183594	1697.81396484375	1240.013427734375	491.8779296875	944.2994995117188	1235.268676757812	103.626708984375	948.7303466796875	1222.77783203125	161.0816650390625	980.2359619140625	1311.775024414062	438.7499084472656	970.9697265625	1314.64990234375	419.533203125	500.4212646484375	1245.234375	461.2605285644531	664.0304565429688	1253.9150390625	403.3541259765625	34.87539672851562	1162.012329101562	420.3666687011719	256.7755432128906	1181.218383789062	331.9394836425781	45.31513214111328	1370.373779296875	301.0557556152344	49.15621566772461	1295.586791992188	410.3250122070312	39.13894271850586	1285.08251953125	351.8854064941406	38.27672576904297	1090.692626953125	152.9160308837891	504.627197265625	1234.085205078125	109.1241455078125	793.151611328125	1258.412475585938	172.097900390625	43.7039909362793	1151.027099609375	165.9847869873047	363.4676818847656	1229.353149414062	209.9161224365234	44.71467971801758	1371.97021484375	252.8157958984375	40.86742782592773	1306.100830078125	152.4142913818359	45.51670837402344	1283.310302734375	223.1233367919922	31.72254180908203	1096.189086914062	58.35773849487305	913.0062255859375	1334.393188476562	nan	nan	nan	nan	nan	nan	nan	nan	nan	
465	4.64	228.6357116699219	1021.077697753906	1104.246459960938	362.8608703613281	1025.425659179688	1108.10791015625	299.3114624023438	1111.353393554688	1111.209228515625	310.8932800292969	1306.163208007812	1334.8232421875	301.9172668457031	1236.957153320312	1096.786254882812	293.4524230957031	1513.330200195312	1134.309326171875	311.8074340820312	1417.265014648438	1311.55078125	204.7547149658203	1385.341064453125	1071.509521484375	380.9573974609375	1459.241943359375	1096.58740234375	470.2887268066406	1485.998657226562	1187.3994140625	544.4470825195312	1356.463745117188	1173.237670898438	566.5763549804688	1136.378173828125	1196.6494140625	507.1851196289062	1128.235595703125	1115.674438476562	530.8290405273438	888.619140625	1282.067749023438	599.33154296875	870.7503051757812	1230.906005859375	576.27392578125	1049.99072265625	1216.961059570312	532.3136596679688	720.1123657226562	1258.943603515625	593.1473999023438	809.9534301757812	1234.7880859375	553.6692504882812	810.6624145507812	1290.463500976562	140.3054351806641	1480.119140625	1199.443725585938	70.34728240966797	1414.836669921875	1185.3740234375	21.72577285766602	1127.167724609375	1191.7900390625	47.68257522583008	1107.400024414062	1136.457885742188	-9.91364860534668	891.1402587890625	1291.133544921875	12.41925048828125	1072.161865234375	1203.878051757812	54.92742538452148	740.8833618164062	1350.319213867188	41.85149002075195	823.267822265625	1367.367309570312	-7.097702980041504	818.1024780273438	1311.80419921875	228.7795257568359	1697.6318359375	1226.781616210938	376.8775634765625	1714.119873046875	1372.304443359375	232.7632141113281	1712.640991210938	1366.752319335938	394.8275756835938	1697.837890625	1240.489135742188	491.3964233398438	944.019775390625	1235.703247070312	103.5739288330078	948.5838012695312	1223.399658203125	160.8354187011719	980.0828857421875	1312.4091796875	438.3341674804688	970.8160400390625	1315.428100585938	419.4251098632812	500.2728271484375	1245.338500976562	461.1438293457031	663.8994750976562	1254.258666992188	403.3840637207031	34.87593078613281	1162.000122070312	420.3578186035156	256.744873046875	1181.271606445312	331.9509582519531	45.33607482910156	1370.339111328125	301.0564575195312	49.15414047241211	1295.54833984375	410.3098449707031	39.13678359985352	1285.072631835938	351.9107055664062	38.22588729858398	1090.668579101562	152.8656158447266	504.5544128417969	1234.157470703125	108.9147644042969	793.0836791992188	1258.781616210938	172.0915985107422	43.70434188842773	1151.035278320312	165.9219055175781	363.4522399902344	1229.353393554688	209.9262390136719	44.71023178100586	1371.976928710938	252.8238983154297	40.86792373657227	1306.106201171875	152.4253692626953	45.52030944824219	1283.313720703125	223.1293029785156	31.73293495178223	1096.18603515625	58.04780197143555	912.9464721679688	1334.84375	nan	nan	nan	nan	nan	nan	nan	nan	nan	
466	4.65	228.48046875	1021.231201171875	1104.9404296875	362.6449584960938	1025.526000976562	1108.997192382812	299.1609191894531	1111.288818359375	1112.113647460938	310.6094665527344	1306.185546875	1335.694702148438	301.7987365722656	1236.901245117188	1097.680908203125	293.1825256347656	1513.286499023438	1135.050048828125	311.5140380859375	1417.271850585938	1312.345336914062	204.6394195556641	1385.195068359375	1072.207885742188	380.6390991210938	1459.207641601562	1097.378051757812	470.05126953125	1485.977172851562	1188.186767578125	544.1779174804688	1356.505126953125	1173.326538085938	566.3567504882812	1136.28662109375	1194.935546875	506.38134765625	1128.80224609375	1114.345825195312	531.4246215820312	887.5230102539062	1277.9931640625	599.7200317382812	870.3843383789062	1226.2177734375	576.271240234375	1049.749145507812	1214.401245117188	532.8678588867188	719.2293090820312	1252.216674804688	593.640625	809.5250854492188	1229.221557617188	554.2765502929688	809.143798828125	1284.91455078125	140.0731048583984	1480.021362304688	1200.039672851562	70.14591217041016	1414.71630859375	1185.885131835938	21.4825325012207	1127.042358398438	1192.103881835938	47.49003601074219	1107.278564453125	1136.848266601562	-10.15916538238525	890.9801635742188	1291.463134765625	12.21427822113037	1072.007934570312	1204.204833984375	54.73713684082031	740.7640380859375	1350.774780273438	41.58425903320312	823.1748657226562	1367.763427734375	-7.21748161315918	817.9342651367188	1312.135620117188	228.2907409667969	1697.579711914062	1227.189575195312	376.3935852050781	1714.36083984375	1372.677490234375	232.3234100341797	1712.808471679688	1367.150512695312	394.4639587402344	1697.8603515625	1240.946533203125	490.8837280273438	943.7298583984375	1236.127197265625	103.5644073486328	948.4493408203125	1224.047607421875	160.5996704101562	979.9501953125	1313.019409179688	437.9783935546875	970.6766967773438	1316.199829101562	419.3317260742188	500.1199035644531	1245.464477539062	461.040283203125	663.753173828125	1254.628295898438	403.4055786132812	34.87802886962891	1161.995849609375	420.3238830566406	256.7004699707031	1181.37548828125	331.9534606933594	45.34472274780273	1370.314697265625	301.0521545410156	49.14610290527344	1295.52197265625	410.2945556640625	39.13520431518555	1285.065673828125	351.9295043945312	38.1929931640625	1090.648315429688	152.8103485107422	504.4817199707031	1234.35693359375	108.6375961303711	793.0484619140625	1259.131225585938	172.0896301269531	43.71015930175781	1151.050659179688	165.8799896240234	363.4253540039062	1229.463256835938	209.9386444091797	44.70180892944336	1371.992309570312	252.8339996337891	40.86026382446289	1306.118774414062	152.443115234375	45.52462005615234	1283.323486328125	223.1398315429688	31.74980926513672	1096.184936523438	57.84059524536133	912.8450317382812	1335.22705078125	nan	nan	nan	nan	nan	nan	nan	nan	nan	
